<svg
                          data-v-6c0f25cf=""
                          version="1.1"
                          viewBox="0 0 268 72"
                          class="svg-icon svg-fill"
                        >
                          <g fill="#24272A" fill-rule="evenodd">
                            <path d="M93.655 10.148h7.135l6.094 15.134h.074l5.946-15.134h7.098v26.514h-5.467V19.37h-.073l-5.504 13.981h-4.277l-5.54-13.907h-.075v17.218h-5.43V10.148zM124.335 10.148h18.954v4.869h-13.192v5.764h11.413v4.87h-11.413v6.132h13.302v4.87h-19.064z"></path>
                            <path
                              fill-rule="nonzero"
                              d="M147.013 10.148h10.666c5.836 0 10.63 3.458 10.63 9.517v7.249c0 6.437-5.163 9.739-10.556 9.739h-10.74V10.148zm10.445 21.645c2.452 0 5.089-1.448 5.089-4.685v-7.47c0-2.906-2.416-4.612-5.283-4.612h-4.498v16.776h4.692v-.01z"
                            ></path>
                            <path d="M172.06 10.148h5.762v26.514h-5.762z"></path>
                            <path
                              fill-rule="nonzero"
                              d="M190.148 10.11h5.835l9.514 26.552h-6.02l-1.788-5.321h-9.772l-1.826 5.321h-5.577l9.634-26.551zm6.056 16.546l-3.346-10.154h-.074l-3.383 10.154h6.803zM101.168 44.907h5.836l9.513 26.551h-6.02l-1.788-5.321h-9.772l-1.825 5.321h-5.577l9.633-26.551zm6.057 16.545l-3.346-10.154h-.074l-3.383 10.154h6.803z"
                            ></path>
                            <path d="M117.734 62.531v-8.254c0-6.4 5.015-9.776 10.85-9.776 5.09 0 10.446 2.712 10.446 8.743v1.042h-5.467v-.516c0-3.09-2.71-4.353-4.941-4.353-2.416 0-5.126 1.3-5.126 4.685v8.254c0 2.942 2.379 4.648 5.273 4.648 2.231 0 4.794-1.264 4.794-4.39v-.48h5.467v1.043c0 6.022-5.163 8.743-10.298 8.743-5.798-.019-10.998-3.1-10.998-9.389z"></path>
                            <path
                              fill-rule="nonzero"
                              d="M149.862 44.907h5.835l9.514 26.551h-6.02l-1.788-5.321h-9.772l-1.826 5.321h-5.577l9.634-26.551zm6.066 16.545l-3.347-10.154h-.073l-3.384 10.154h6.804zM167.977 44.944h10.666c5.835 0 10.629 3.458 10.629 9.517v7.25c0 6.437-5.163 9.738-10.556 9.738h-10.74V44.944zm10.444 21.645c2.453 0 5.09-1.448 5.09-4.685v-7.47c0-2.896-2.416-4.611-5.283-4.611h-4.499v16.775h4.692v-.01z"
                            ></path>
                            <path d="M192.95 44.944h18.954v4.87h-13.192v5.763h11.413v4.87h-11.413v6.133h13.312v4.87h-19.065V44.943zM215.628 44.944h7.136l6.093 15.134h.074l5.946-15.134h7.098v26.514h-5.466V54.166h-.074l-5.504 13.982h-4.277l-5.54-13.908h-.074v17.218h-5.43V44.944zM253.38 60.899l-8.814-15.955h6.324l5.577 10.78 5.504-10.78h5.946l-8.85 16.028v10.486h-5.688z"></path>
                            <g>
                              <path d="M45.36 19.93l18.756 41.722H51.14l-2.211-4.864c-2.01-4.413-6.13-6.628-10.25-6.628s-8.24 2.206-10.25 6.628l-2.212 4.864H13.242S25.134 35.206 31.998 19.93c1.258-2.787.138-6.083-2.542-7.523L8.516 1.182C4.67-.877.028 1.92.028 6.305v59.547c0 3.213 2.587 5.806 5.772 5.806h65.758c3.194 0 5.772-2.603 5.772-5.806V6.305c0-4.385-4.643-7.191-8.488-5.123l-20.94 11.224a5.826 5.826 0 0 0-2.543 7.523z"></path>
                              <path d="M38.679 28.33l-6.497 14.445h12.985z"></path>
                            </g>
                          </g>
                        </svg>